<svg xmlns="http://www.w3.org/2000/svg" viewBox="0 0 1200 630" width="1200" height="630">
  <defs>
    <radialGradient id="glow" cx="78%" cy="18%" r="60%">
      <stop offset="0%" stop-color="#14321f"/>
      <stop offset="100%" stop-color="#0b0f0d"/>
    </radialGradient>
  </defs>
  <rect width="1200" height="630" fill="url(#glow)"/>
  <g transform="translate(96,150)">
    <rect width="64" height="64" rx="16" fill="#161e21" stroke="#22302f"/>
    <path d="M32 21c-.8 0-1.5.4-2 1C27.9 25 22 30.5 22 36c0 3.1 2.5 5.5 5.5 5.5 1.3 0 2.4-.4 3.3-1.1-.3 2-1.1 3.5-2.4 4.7-.4.4-.1 1 .4 1h6.4c.5 0 .8-.6.4-1-1.3-1.2-2.1-2.7-2.4-4.7.9.7 2 1.1 3.3 1.1 3 0 5.5-2.4 5.5-5.5C42 30.5 36.1 25 34 22c-.5-.6-1.2-1-2-1z" fill="#4ade80"/>
    <text x="84" y="44" font-family="-apple-system, Segoe UI, Roboto, sans-serif" font-size="34" font-weight="800" fill="#e7efe9">Bankrolly</text>
  </g>
  <text x="96" y="330" font-family="-apple-system, Segoe UI, Roboto, sans-serif" font-size="68" font-weight="800" fill="#e7efe9">Know if you're actually</text>
  <text x="96" y="408" font-family="-apple-system, Segoe UI, Roboto, sans-serif" font-size="68" font-weight="800" fill="#4ade80">a winning poker player.</text>
  <text x="96" y="480" font-family="-apple-system, Segoe UI, Roboto, sans-serif" font-size="32" font-weight="500" fill="#90a39c">Poker bankroll &amp; session tracker for iOS — private, on your device.</text>
</svg>
